<svg width="588" height="588" viewBox="0 0 588 588" xmlns="http://www.w3.org/2000/svg"><g fill-rule="nonzero" fill="none"><path d="m443.214 544.095-374.79-66.086c-16.318-2.877-27.213-18.436-24.335-34.754l66.085-374.79c2.878-16.318 18.437-27.213 34.754-24.336l374.79 66.086c16.318 2.877 27.212 18.436 24.335 34.754l-66.086 374.79c-2.877 16.317-18.436 27.213-34.753 24.336Z" fill="#F15C7B"/><path d="m66.634 447.345 66.125-375.013c2.866-16.256 18.367-27.109 34.622-24.243l-22.564-3.978c-16.256-2.867-31.756 7.988-34.622 24.242L44.07 443.367c-2.866 16.255 7.988 31.755 24.242 34.621l22.564 3.98C74.622 479.1 63.768 463.6 66.634 447.344Z" fill="#CF3B5A"/><path d="m496.042 72.683-.852 25.592 25.943 4.575c20.334 3.585 33.911 22.976 30.326 43.31l-5.949 33.733 23.425.78-.5 14.991-25.556-.851-15.024 85.206 23.425.78-.499 14.991-25.557-.851-6.827 38.724-14.772-2.605 6.457-36.623-22.627-.753.499-14.992 24.759.824 15.024-85.206-22.627-.751.499-14.992 24.759.824 6.319-35.834c2.147-12.175-5.983-23.786-18.159-25.933l-23.843-4.205-.751 22.593-14.992-.499.824-24.725-85.206-15.024-.752 22.593-14.991-.499.823-24.724-85.206-15.025-.752 22.593-14.992-.499.824-24.724-85.207-15.025-.75 22.593-14.992-.499.822-24.724-35.873-6.325c-12.175-2.147-23.786 5.983-25.933 18.158l-4.199 23.811 22.628.754-.5 14.992-24.759-.826-15.024 85.207 22.628.754-.499 14.991-24.76-.825-15.024 85.206 22.628.753-.499 14.992-24.76-.825-15.024 85.206 22.628.754-.499 14.991-24.76-.826-6.33 35.906c-2.147 12.176 5.983 23.786 18.158 25.933l23.851 4.205.755-22.663 14.992.5-.826 24.794 85.205 15.024.756-22.663 14.991.5-.826 24.794 85.206 15.024.754-22.663 14.992.499-.826 24.795 85.205 15.024.755-22.663 14.992.499-.826 24.795 35.864 6.324c12.176 2.147 23.787-5.983 25.933-18.158l4.211-23.883-22.627-.753.5-14.992 24.758.824 15.024-85.205-22.627-.753.499-14.991 24.759.823 8.567-48.582 14.775 2.605-8.2 46.482 23.425.78-.499 14.992-25.557-.852-15.024 85.206 23.425.78-.499 14.991-25.556-.851-4.581 25.984c-3.586 20.334-22.977 33.91-43.31 30.326l-33.764-5.954-.778 23.388-14.992-.499.85-25.52-85.206-15.024-.778 23.388-14.991-.499.849-25.52-85.206-15.024-.778 23.388-14.992-.499.85-25.52-85.206-15.024-.778 23.388-14.992-.499.849-25.52-25.951-4.576c-20.334-3.585-33.912-22.976-30.326-43.31l5.96-33.805-23.425-.778.5-14.992 25.556.85 15.024-85.205-23.425-.779.499-14.991 25.557.85 15.024-85.206-23.425-.78.499-14.99 25.557.85 15.024-85.207-23.425-.778.499-14.992 25.556.85 4.57-25.911c3.585-20.334 22.976-33.912 43.31-30.326l33.773 5.954.78-23.46 14.992.5-.853 25.59 85.207 15.025.78-23.46 14.992.5-.852 25.59 85.206 15.025.781-23.46 14.992.5-.853 25.59 85.206 15.025.78-23.46 14.992.499Z" fill="#000"/><path fill="#FFCF13" d="M220.37 249.79 153.9 291.1v19.21l66.13 41.14 12.24-19.21-55.25-31.62 55.25-32.3z"/><path fill="#E49C00" d="m220.37 249.79 3.089 4.81-63.559 39.5v19.21l60.464 37.615-.334.525-66.13-41.14V291.1z"/><path d="m225.005 229.249 7.986 12.435 11.9 18.53 8.452 13.161-13.503 7.894-32.864 19.213 32.745 18.74 13.652 7.813-8.453 13.265-12.24 19.21-7.974 12.515-12.6-7.839-66.13-41.14-7.076-4.402v-35.883l7.082-4.401 66.47-41.31 12.553-7.801Zm-4.635 20.541L153.9 291.1v19.21l66.13 41.14 12.24-19.21-55.25-31.62 55.25-32.3-11.9-18.53Z" fill="#000"/><path fill="#FFCF13" d="m270.784 373.04 71.23-148.24-20.74-9.69-71.4 148.24z"/><path fill="#E49C00" d="m321.274 215.11 20.74 9.69-.077.16-14.663-6.85-71.313 148.06-6.087-2.82z"/><path d="m314.193 195.245 13.43 6.275 20.74 9.69 13.739 6.419-6.567 13.667-71.23 148.24-6.407 13.333-13.42-6.22-20.91-9.69-13.815-6.401 6.607-13.717 71.4-148.24 6.433-13.356Zm7.081 19.865-71.4 148.24 20.91 9.69 71.23-148.24-20.74-9.69Z" fill="#000"/><path fill="#FFCF13" d="m366.967 249.79-11.9 19.38 55.08 31.45-55.08 32.47 12.07 18.36 66.3-41.14v-19.38z"/><path fill="#E49C00" d="m366.967 249.79 5.682 3.517-11.582 18.863 55.08 31.45-55.08 32.47 8.93 13.585-2.86 1.775-12.07-18.36 55.08-32.47-55.08-31.45z"/><path d="m362.06 229.113 12.8 7.922 66.47 41.14 7.107 4.398v36.082l-7.092 4.4-66.3 41.14-12.416 7.705-8.026-12.21-12.07-18.36-8.653-13.162 13.57-8 32.809-19.341-32.63-18.63-13.448-7.68 8.103-13.196 11.9-19.38 7.877-12.828Zm4.907 20.677-11.9 19.38 55.08 31.45-55.08 32.47 12.07 18.36 66.3-41.14v-19.38l-66.47-41.14Z" fill="#000"/></g></svg>